 <svg version="1.0" xmlns="http://www.w3.org/2000/svg" width="700.000000pt" height="700.000000pt" viewBox="0 0 700.000000 700.000000" preserveAspectRatio="xMidYMid meet">
<metadata>
Created by potrace 1.12, written by Peter Selinger 2001-2015
</metadata>
<g transform="translate(0.000000,700.000000) scale(0.100000,-0.100000)" fill="#000000" stroke="none">
<path d="M4714 6361 c-21 -16 -93 -84 -159 -151 -66 -68 -167 -171 -225 -230
-58 -59 -269 -275 -470 -480 -201 -205 -367 -376 -370 -380 -3 -4 -187 -193
-410 -420 -223 -227 -454 -462 -514 -524 -60 -61 -204 -208 -321 -326 -116
-119 -224 -237 -240 -263 -35 -61 -32 -122 10 -185 31 -46 46 -63 613 -641
463 -471 557 -567 747 -762 175 -179 459 -470 950 -972 193 -197 370 -371 394
-388 37 -24 54 -29 105 -29 52 1 67 5 101 31 22 16 52 53 67 82 l28 52 0 2726
0 2726 -27 51 c-16 28 -45 65 -67 81 -34 28 -46 31 -105 31 -58 0 -72 -4 -107
-29z m-90 -718 c9 -35 4 -4268 -6 -4286 -18 -35 -56 -8 -210 149 -84 86 -225
230 -313 319 -944 962 -1378 1404 -1528 1560 -105 109 -108 123 -39 192 26 26
218 223 427 437 209 213 452 461 540 551 88 89 331 337 540 550 209 213 415
423 457 466 80 81 121 100 132 62z"></path>
</g>
</svg>