 <svg version="1.0" xmlns="http://www.w3.org/2000/svg" width="700.000000pt" height="809.000000pt" viewBox="0 0 700.000000 809.000000" preserveAspectRatio="xMidYMid meet">
<metadata>
Created by potrace 1.12, written by Peter Selinger 2001-2015
</metadata>
<g transform="translate(0.000000,809.000000) scale(0.100000,-0.100000)" fill="#000000" stroke="none">
<path d="M297 7898 c-19 -31 -97 -179 -97 -184 0 -2 9 -4 19 -4 12 0 25 11 33
28 12 24 20 27 65 30 49 3 53 1 68 -27 10 -20 23 -31 36 -31 11 0 19 3 17 8
-2 4 -17 34 -35 67 -78 147 -82 152 -106 113z m49 -73 c14 -29 9 -35 -26 -35
-15 0 -29 2 -32 5 -10 10 17 55 32 55 8 0 20 -11 26 -25z"></path>
<path d="M3120 7908 c1 -7 22 -53 48 -103 33 -64 52 -90 66 -90 13 0 33 28 69
97 28 54 48 100 44 104 -15 15 -39 -9 -69 -71 -18 -36 -38 -65 -44 -65 -7 0
-27 30 -46 67 -19 39 -40 69 -50 71 -10 2 -18 -2 -18 -10z"></path>
<path d="M3593 7880 c-43 -17 -56 -72 -25 -110 22 -28 84 -30 113 -4 29 26 25
78 -7 103 -29 23 -46 25 -81 11z"></path>
<path d="M3904 7867 c-53 -46 -22 -119 51 -119 44 0 62 15 71 59 5 26 1 37
-19 57 -32 32 -68 33 -103 3z"></path>
<path d="M4243 7880 c-53 -22 -54 -102 0 -125 38 -16 75 -6 100 27 17 23 18
31 8 56 -12 28 -48 53 -74 51 -7 0 -22 -4 -34 -9z"></path>
<path d="M4534 7876 c-3 -7 -4 -40 -2 -72 l3 -59 224 -3 c156 -2 228 1 237 9
8 7 14 31 14 59 0 85 16 80 -241 80 -185 0 -231 -3 -235 -14z"></path>
<path d="M620 7842 c-17 -13 -23 -29 -22 -53 2 -87 127 -93 148 -7 14 59 -75
101 -126 60z"></path>
<path d="M922 7788 c2 -40 6 -72 11 -70 4 1 111 2 237 2 l230 0 0 70 0 70
-240 0 -241 0 3 -72z"></path>
<path d="M268 7533 l-28 -4 0 -98 0 -98 28 -6 c36 -7 117 6 136 23 23 18 20
56 -6 74 -17 12 -20 18 -10 28 18 18 15 52 -7 65 -23 14 -77 22 -113 16z m80
-22 c8 -4 12 -19 10 -32 -3 -21 -8 -24 -43 -24 -41 0 -54 16 -41 51 6 15 53
19 74 5z m28 -108 c10 -37 -7 -57 -51 -61 -42 -4 -55 8 -55 49 0 35 6 39 56
39 39 0 44 -3 50 -27z"></path>
<path d="M3093 7518 c3 -7 18 -52 34 -100 26 -82 30 -88 56 -88 22 0 27 4 27
24 0 14 -7 26 -17 28 -11 3 -23 24 -32 54 -22 75 -32 94 -53 94 -12 0 -18 -5
-15 -12z"></path>
<path d="M3246 7508 c-3 -13 -6 -32 -5 -43 0 -15 3 -13 13 10 l14 30 10 -25
c6 -14 11 -18 11 -10 1 29 -11 60 -24 60 -7 0 -15 -10 -19 -22z"></path>
<path d="M3378 7459 c-12 -39 -30 -75 -40 -80 -10 -5 -18 -19 -18 -29 0 -15 7
-20 28 -20 25 0 29 6 56 88 16 48 31 93 33 100 3 7 -3 12 -15 12 -17 0 -25
-14 -44 -71z"></path>
<path d="M3571 7484 c-27 -35 -27 -65 2 -92 29 -28 87 -29 110 -4 25 28 22 87
-5 106 -35 25 -83 20 -107 -10z"></path>
<path d="M3874 7496 c-3 -7 -4 -38 -2 -67 l3 -54 243 -3 242 -2 0 70 0 70
-240 0 c-194 0 -242 -3 -246 -14z"></path>
<path d="M4530 7440 l0 -70 238 2 237 3 3 68 3 67 -241 0 -240 0 0 -70z"></path>
<path d="M597 7483 c-10 -9 -8 -115 1 -131 7 -9 61 -12 238 -10 l229 3 3 73 3
72 -234 0 c-128 0 -237 -3 -240 -7z"></path>
<path d="M1255 7465 c-48 -47 -19 -119 48 -119 47 0 77 27 77 69 0 67 -78 98
-125 50z"></path>
<path d="M1586 7469 c-65 -51 -2 -150 77 -120 34 13 50 46 43 86 -10 53 -73
71 -120 34z"></path>
<path d="M1912 7470 c-29 -27 -29 -80 -2 -105 48 -44 130 -9 130 55 0 59 -84
91 -128 50z"></path>
<path d="M3216 7422 c-4 -13 -5 -26 -2 -29 10 -11 18 4 14 29 l-4 23 -8 -23z"></path>
<path d="M3300 7418 c0 -16 5 -28 10 -28 13 0 13 20 0 40 -8 12 -10 9 -10 -12z"></path>
<path d="M278 7156 c-15 -6 -34 -21 -43 -31 -22 -31 -19 -90 8 -119 28 -32
102 -53 143 -40 26 8 23 9 -28 12 -49 3 -61 7 -83 33 -27 33 -31 59 -13 92 17
33 39 46 78 47 19 1 44 5 55 10 14 6 4 9 -35 8 -30 0 -67 -5 -82 -12z"></path>
<path d="M3166 7138 c59 -64 58 -60 13 -117 -35 -44 -38 -52 -23 -58 12 -4 27
5 54 37 l36 43 33 -42 c32 -40 61 -54 61 -28 0 7 -13 28 -30 47 -16 19 -29 42
-30 51 0 8 16 34 36 57 35 41 35 42 12 42 -14 0 -35 -11 -48 -25 -13 -14 -29
-25 -35 -25 -6 0 -22 11 -35 25 -13 14 -35 25 -49 25 l-25 0 30 -32z"></path>
<path d="M3550 7060 l0 -70 240 0 240 0 0 70 0 70 -240 0 -240 0 0 -70z"></path>
<path d="M4221 7104 c-27 -35 -26 -59 4 -89 33 -34 78 -33 110 1 30 33 31 53
4 88 -16 20 -29 26 -59 26 -30 0 -43 -6 -59 -26z"></path>
<path d="M4546 7108 c-36 -51 0 -118 64 -118 57 0 93 86 52 123 -28 26 -97 22
-116 -5z"></path>
<path d="M4854 7116 c-3 -7 -4 -38 -2 -67 l3 -54 243 -3 242 -2 0 70 0 70
-240 0 c-194 0 -242 -3 -246 -14z"></path>
<path d="M594 7096 c-3 -7 -4 -38 -2 -67 l3 -54 238 -3 237 -2 0 70 0 70 -235
0 c-190 0 -237 -3 -241 -14z"></path>
<path d="M1266 7088 c-53 -75 35 -154 108 -97 30 24 34 63 10 97 -12 17 -25
22 -59 22 -34 0 -47 -5 -59 -22z"></path>
<path d="M1580 7040 l0 -70 240 0 240 0 0 70 0 70 -240 0 -240 0 0 -70z"></path>
<path d="M2258 7096 c-10 -7 -21 -27 -24 -44 -12 -61 69 -105 124 -66 28 20
31 83 4 107 -22 20 -80 22 -104 3z"></path>
<path d="M214 6777 c-3 -8 -4 -54 -2 -103 l3 -89 55 -3 c65 -4 128 14 152 42
21 25 23 93 4 118 -7 10 -29 25 -49 33 -46 19 -156 20 -163 2z m170 -38 c33
-39 33 -69 0 -109 -24 -28 -31 -31 -78 -28 l-51 3 -3 69 c-2 38 -1 75 2 83 4
8 23 13 55 13 43 0 53 -4 75 -31z"></path>
<path d="M3147 6784 c-3 -3 16 -33 44 -66 40 -49 49 -66 49 -99 0 -57 26 -53
32 6 4 35 16 57 52 99 25 30 46 57 46 60 0 3 -10 6 -22 6 -15 0 -34 -15 -52
-40 -17 -22 -35 -40 -41 -40 -6 0 -24 18 -41 40 -27 36 -52 49 -67 34z"></path>
<path d="M3554 6747 c-3 -8 -4 -41 -2 -73 l3 -59 235 0 235 0 0 70 0 70 -233
3 c-190 2 -233 0 -238 -11z"></path>
<path d="M4240 6747 c-82 -42 -19 -157 69 -126 58 20 61 102 5 128 -31 14 -43
14 -74 -2z"></path>
<path d="M4534 6746 c-3 -7 -4 -40 -2 -72 l3 -59 229 -3 c177 -2 231 1 238 10
9 15 11 99 2 122 -5 14 -36 16 -235 16 -185 0 -231 -3 -235 -14z"></path>
<path d="M5194 6747 c-3 -8 -4 -41 -2 -73 l3 -59 230 0 230 0 0 70 0 70 -228
3 c-186 2 -228 0 -233 -11z"></path>
<path d="M595 6717 c-4 -13 -5 -43 -3 -68 l3 -44 238 -3 237 -2 0 70 0 70
-235 0 -235 0 -5 -23z"></path>
<path d="M1236 6719 c-30 -24 -34 -63 -10 -97 12 -17 25 -22 58 -22 51 0 76
22 76 68 0 35 -38 72 -75 72 -12 0 -34 -9 -49 -21z"></path>
<path d="M1569 6730 c-9 -5 -22 -23 -29 -40 -11 -28 -11 -34 7 -58 27 -36 92
-43 122 -13 59 59 -28 153 -100 111z"></path>
<path d="M267 6403 c-4 -3 -7 -51 -7 -105 l0 -98 81 0 c54 0 78 3 74 11 -4 6
-30 9 -59 8 l-51 -3 -3 42 -3 42 60 0 c34 0 61 4 61 10 0 6 -27 10 -60 10
l-60 0 0 35 0 35 60 0 c33 0 60 4 60 10 0 11 -142 14 -153 3z"></path>
<path d="M3135 6400 c-4 -6 21 -10 69 -10 41 0 77 -4 80 -8 3 -5 -31 -44 -75
-87 -43 -44 -79 -83 -79 -87 0 -5 52 -8 116 -8 77 0 113 3 109 10 -4 6 -37 10
-76 9 -38 -1 -73 2 -77 6 -4 4 31 42 77 85 47 44 80 83 77 89 -9 14 -212 15
-221 1z"></path>
<path d="M3550 6310 l0 -70 240 0 240 0 0 70 0 70 -240 0 -240 0 0 -70z"></path>
<path d="M4200 6310 l0 -70 240 0 240 0 0 70 0 70 -240 0 -240 0 0 -70z"></path>
<path d="M4888 6366 c-32 -24 -38 -60 -17 -95 16 -27 24 -31 63 -31 51 0 76
24 76 72 0 54 -77 89 -122 54z"></path>
<path d="M5212 6360 c-28 -26 -29 -80 -4 -103 27 -25 87 -22 112 5 62 66 -41
160 -108 98z"></path>
<path d="M650 6363 c-55 -20 -70 -97 -25 -127 62 -41 137 8 119 79 -5 19 -59
58 -76 54 -1 0 -10 -3 -18 -6z"></path>
<path d="M333 6042 l-73 -3 0 -98 c0 -102 3 -113 26 -104 9 3 14 21 14 54 l0
49 50 0 c28 0 50 5 50 10 0 6 -23 10 -51 10 l-50 0 3 33 c3 32 4 32 63 37 82
7 57 16 -32 12z"></path>
<path d="M3572 5980 c-29 -27 -28 -65 3 -95 28 -29 65 -32 100 -9 31 20 35 82
7 107 -26 24 -83 22 -110 -3z"></path>
<path d="M3874 5986 c-3 -7 -4 -38 -2 -67 l3 -54 243 -3 242 -2 0 70 0 70
-240 0 c-194 0 -242 -3 -246 -14z"></path>
<path d="M4550 5980 c-65 -65 41 -162 108 -100 28 26 29 80 4 103 -26 24 -87
22 -112 -3z"></path>
<path d="M4857 5993 c-4 -3 -7 -35 -7 -70 l0 -63 245 0 245 0 0 70 0 70 -238
0 c-131 0 -242 -3 -245 -7z"></path>
<path d="M5531 5974 c-27 -35 -26 -55 4 -88 32 -35 77 -35 112 0 20 20 24 32
19 56 -8 40 -32 57 -78 58 -28 0 -41 -6 -57 -26z"></path>
<path d="M5847 5993 c-4 -3 -7 -35 -7 -70 l0 -63 240 0 240 0 0 70 0 70 -233
0 c-129 0 -237 -3 -240 -7z"></path>
<path d="M619 5972 c-50 -41 -17 -122 51 -122 45 0 73 27 73 72 0 37 -32 68
-73 68 -15 0 -38 -8 -51 -18z"></path>
<path d="M960 5983 c-42 -17 -52 -76 -20 -111 27 -29 83 -29 110 -2 56 56 -14
142 -90 113z"></path>
<path d="M1280 5920 c0 -64 2 -70 23 -75 12 -3 119 -4 237 -3 l215 3 3 73 3
72 -241 0 -240 0 0 -70z"></path>
<path d="M1940 5983 c-66 -26 -42 -133 30 -133 42 0 59 9 76 41 13 26 13 32 0
58 -19 36 -64 50 -106 34z"></path>
<path d="M3242 5854 c4 -21 22 -23 26 -1 2 10 -3 17 -13 17 -10 0 -15 -6 -13
-16z"></path>
<path d="M253 5644 c-18 -7 -40 -28 -48 -45 -48 -93 66 -179 184 -138 27 10
31 15 31 49 0 37 -1 38 -41 45 -26 4 -45 3 -52 -4 -8 -8 -3 -11 20 -11 33 0
45 -16 36 -49 -4 -18 -13 -21 -53 -21 -60 0 -100 34 -100 87 0 53 36 83 100
83 27 0 50 5 50 10 0 15 -90 11 -127 -6z"></path>
<path d="M3554 5616 c-3 -7 -4 -40 -2 -72 l3 -59 235 0 235 0 3 64 c2 45 -1
67 -10 72 -7 5 -113 9 -236 9 -179 0 -224 -3 -228 -14z"></path>
<path d="M4212 5622 c-9 -6 -12 -28 -10 -73 l3 -64 235 0 235 0 0 70 0 70
-225 2 c-124 2 -231 -1 -238 -5z"></path>
<path d="M4905 5623 c-26 -6 -54 -42 -55 -69 0 -26 33 -62 66 -70 38 -10 78
24 82 68 4 49 -40 83 -93 71z"></path>
<path d="M5223 5620 c-26 -10 -43 -39 -43 -73 0 -57 94 -84 131 -38 48 59 -15
139 -88 111z"></path>
<path d="M5512 5618 c-13 -13 -16 -106 -4 -126 7 -9 61 -12 238 -10 l229 3 0
70 0 70 -225 3 c-167 2 -229 -1 -238 -10z"></path>
<path d="M6154 5617 c-3 -8 -4 -41 -2 -73 l3 -59 238 -3 238 -2 -3 72 -3 73
-233 3 c-190 2 -233 0 -238 -11z"></path>
<path d="M594 5606 c-3 -7 -4 -40 -2 -72 l3 -59 235 0 235 0 3 73 3 72 -236 0
c-190 0 -237 -3 -241 -14z"></path>
<path d="M1212 5548 l3 -73 235 0 235 0 0 70 0 70 -238 3 -238 2 3 -72z"></path>
<path d="M1871 5601 c-54 -41 -19 -130 50 -131 32 0 79 44 79 75 0 31 -47 75
-79 75 -14 0 -37 -9 -50 -19z"></path>
<path d="M3231 5468 c-5 -13 -5 -24 1 -26 12 -5 38 18 38 34 0 23 -30 16 -39
-8z"></path>
<path d="M214 5267 c-3 -8 -4 -54 -2 -103 3 -75 6 -89 21 -92 14 -3 17 4 17
46 l0 50 61 4 c71 4 81 -4 77 -58 -2 -30 1 -39 15 -42 15 -3 17 7 17 103 0 96
-2 106 -17 103 -12 -2 -18 -13 -19 -33 -1 -17 -2 -36 -3 -43 -1 -9 -18 -12
-63 -10 l-63 3 -3 43 c-2 29 -8 42 -18 42 -8 0 -17 -6 -20 -13z"></path>
<path d="M3205 5270 c-4 -6 6 -10 22 -10 27 0 53 -15 53 -30 0 -4 -16 -23 -36
-44 -34 -35 -37 -56 -8 -56 8 0 14 7 14 16 0 9 16 31 35 49 22 20 33 38 30 47
-12 30 -96 51 -110 28z"></path>
<path d="M3590 5243 c-33 -23 -40 -33 -40 -64 0 -44 32 -74 77 -74 50 0 77 25
77 72 0 61 -66 99 -114 66z"></path>
<path d="M3906 5229 c-19 -15 -26 -30 -26 -53 0 -42 26 -66 71 -66 43 1 67 19
75 58 5 24 1 36 -19 56 -31 31 -65 33 -101 5z"></path>
<path d="M4207 5243 c-4 -3 -7 -35 -7 -70 l0 -63 240 0 240 0 0 70 0 70 -233
0 c-129 0 -237 -3 -240 -7z"></path>
<path d="M4854 5236 c-3 -7 -4 -38 -2 -67 l3 -54 238 -3 237 -2 0 70 0 70
-235 0 c-190 0 -237 -3 -241 -14z"></path>
<path d="M5529 5232 c-28 -23 -30 -73 -4 -102 28 -31 88 -27 114 6 27 35 26
55 -4 88 -29 31 -72 34 -106 8z"></path>
<path d="M5856 5229 c-32 -25 -36 -77 -8 -102 28 -26 97 -22 116 5 35 49 0
118 -59 118 -12 0 -34 -9 -49 -21z"></path>
<path d="M616 5221 c-26 -28 -24 -80 4 -103 71 -57 166 35 105 102 -24 26 -85
27 -109 1z"></path>
<path d="M940 5218 c-43 -47 -10 -118 55 -118 44 0 75 29 75 70 0 64 -85 96
-130 48z"></path>
<path d="M1261 5214 c-12 -15 -21 -35 -21 -46 0 -30 45 -68 80 -68 35 0 80 38
80 68 0 11 -9 31 -21 46 -16 20 -29 26 -59 26 -30 0 -43 -6 -59 -26z"></path>
<path d="M1591 5214 c-27 -35 -26 -59 4 -89 28 -29 70 -32 103 -9 31 21 31 87
0 108 -35 25 -83 20 -107 -10z"></path>
<path d="M3215 5100 c-8 -14 3 -30 21 -30 8 0 14 9 14 20 0 21 -24 28 -35 10z"></path>
<path d="M306 4893 c-3 -4 -6 -51 -6 -105 0 -91 1 -98 20 -98 19 0 20 7 20 99
0 76 -3 100 -14 104 -8 3 -17 3 -20 0z"></path>
<path d="M3290 4865 c-7 -14 -10 -28 -7 -31 4 -4 11 6 17 21 6 15 9 29 7 31
-2 2 -10 -7 -17 -21z"></path>
<path d="M623 4853 c-17 -12 -23 -25 -23 -55 0 -50 20 -71 70 -71 49 0 74 24
74 70 0 61 -69 93 -121 56z"></path>
<path d="M946 4849 c-19 -15 -26 -30 -26 -53 0 -42 28 -68 76 -69 43 -1 74 29
74 72 0 32 -8 44 -37 60 -32 16 -57 14 -87 -10z"></path>
<path d="M3550 4800 l0 -70 240 0 240 0 0 70 0 70 -240 0 -240 0 0 -70z"></path>
<path d="M4221 4844 c-12 -15 -21 -34 -21 -44 0 -33 39 -70 74 -70 64 0 101
61 66 110 -29 41 -88 43 -119 4z"></path>
<path d="M4550 4850 c-44 -44 -10 -120 55 -120 38 0 75 35 75 71 0 58 -88 91
-130 49z"></path>
<path d="M4850 4800 l0 -70 240 0 240 0 0 70 0 70 -240 0 -240 0 0 -70z"></path>
<path d="M5525 4850 c-10 -11 -18 -34 -18 -50 0 -68 80 -95 128 -44 30 33 31
53 4 88 -26 33 -86 37 -114 6z"></path>
<path d="M3260 4796 c0 -31 6 -34 13 -6 3 11 1 23 -4 26 -5 3 -9 -6 -9 -20z"></path>
<path d="M3242 4740 c0 -14 2 -19 5 -12 2 6 2 18 0 25 -3 6 -5 1 -5 -13z"></path>
<path d="M3217 4695 c-4 -8 -2 -17 3 -20 6 -4 10 3 10 14 0 25 -6 27 -13 6z"></path>
<path d="M300 4417 c0 -117 -6 -137 -42 -137 -10 0 -18 -4 -18 -10 0 -18 46
-11 74 11 25 20 26 23 26 135 0 107 -1 114 -20 114 -19 0 -20 -7 -20 -113z"></path>
<path d="M3174 4515 c-46 -20 -84 -70 -84 -110 0 -40 50 -105 80 -105 11 0 22
-4 25 -10 8 -13 91 -13 116 0 10 6 19 16 19 22 0 9 -3 9 -12 0 -7 -7 -35 -12
-63 -12 -42 0 -57 5 -88 31 -32 27 -37 36 -37 74 0 37 5 47 35 74 31 27 43 31
91 31 84 0 123 -28 124 -87 0 -17 -4 -35 -10 -38 -17 -11 -11 -25 8 -18 44 17
55 75 22 111 -46 49 -157 67 -226 37z"></path>
<path d="M3576 4485 c-44 -41 -32 -104 25 -124 83 -29 146 86 73 133 -34 23
-67 20 -98 -9z"></path>
<path d="M5225 4498 c-30 -16 -45 -39 -45 -69 0 -33 41 -69 77 -69 31 0 73 42
73 75 0 24 -31 65 -49 65 -5 0 -15 2 -23 5 -7 2 -22 0 -33 -7z"></path>
<path d="M6193 4490 c-40 -24 -51 -61 -29 -95 31 -48 109 -44 134 7 16 35 2
72 -37 93 -37 18 -30 19 -68 -5z"></path>
<path d="M617 4472 c-25 -28 -22 -87 5 -106 74 -52 163 38 103 104 -24 26 -85
27 -108 2z"></path>
<path d="M880 4420 l0 -70 240 0 240 0 0 70 0 70 -240 0 -240 0 0 -70z"></path>
<path d="M1530 4420 l0 -70 240 0 240 0 0 70 0 70 -240 0 -240 0 0 -70z"></path>
<path d="M2190 4420 l0 -70 240 0 240 0 0 70 0 70 -240 0 -240 0 0 -70z"></path>
<path d="M3877 4483 c-7 -15 -7 -118 1 -131 7 -9 62 -12 243 -10 l234 3 3 73
3 72 -240 0 c-132 0 -242 -3 -244 -7z"></path>
<path d="M4532 4418 l3 -73 224 -3 c130 -1 229 2 234 7 5 5 9 38 9 73 l0 63
-236 3 -237 2 3 -72z"></path>
<path d="M5507 4483 c-4 -3 -7 -35 -7 -69 0 -58 2 -64 23 -69 12 -3 119 -4
237 -3 l215 3 3 73 3 72 -234 0 c-128 0 -237 -3 -240 -7z"></path>
<path d="M3212 4458 c-33 -42 -14 -108 30 -108 20 0 20 1 5 18 -21 23 -22 56
-2 75 8 8 11 17 8 21 -10 10 -30 7 -41 -6z"></path>
<path d="M3279 4468 c0 -2 -2 -29 -3 -60 l-2 -58 35 0 c20 0 31 4 24 8 -6 4
-13 30 -15 57 -2 38 -7 51 -20 53 -10 2 -18 2 -19 0z"></path>
<path d="M240 4045 c0 -87 3 -105 15 -105 10 0 15 10 15 28 0 55 13 58 72 13
49 -37 99 -54 97 -33 0 4 -27 26 -60 50 -32 24 -59 49 -59 55 0 7 23 27 50 46
28 18 50 37 50 42 0 20 -40 7 -84 -27 -51 -39 -66 -37 -66 7 0 19 -5 29 -15
29 -12 0 -15 -18 -15 -105z"></path>
<path d="M3220 4142 c0 -4 5 -13 10 -18 6 -6 10 -43 8 -85 -3 -72 -4 -74 -30
-77 -16 -2 -28 -8 -28 -13 0 -5 37 -9 82 -9 50 0 78 4 73 9 -6 5 -21 11 -35
13 -24 3 -25 5 -28 96 -3 90 -3 92 -27 92 -14 0 -25 -4 -25 -8z"></path>
<path d="M3180 4119 c0 -5 5 -7 10 -4 6 3 10 8 10 11 0 2 -4 4 -10 4 -5 0 -10
-5 -10 -11z"></path>
<path d="M3581 4104 c-39 -33 -41 -74 -6 -109 56 -57 148 -5 129 72 -6 24 -56
63 -81 63 -6 0 -25 -12 -42 -26z"></path>
<path d="M596 4104 c-11 -30 -6 -111 8 -123 9 -8 81 -11 237 -9 l224 3 3 73 3
72 -234 0 c-205 0 -236 -2 -241 -16z"></path>
<path d="M1285 4108 c-27 -15 -35 -28 -35 -58 0 -45 26 -70 74 -70 51 0 76 22
76 68 0 54 -65 88 -115 60z"></path>
<path d="M1582 4048 l3 -73 235 0 235 0 3 73 3 72 -241 0 -241 0 3 -72z"></path>
<path d="M3879 4113 c-6 -44 -4 -121 4 -130 7 -10 62 -13 212 -13 111 0 217 3
234 6 l32 7 -3 66 -3 66 -237 3 c-131 1 -239 -1 -239 -5z"></path>
<path d="M4532 4048 l3 -73 230 0 230 0 3 73 3 72 -236 0 -236 0 3 -72z"></path>
<path d="M5176 4104 c-11 -29 -6 -111 7 -122 8 -7 91 -10 242 -9 l230 2 0 70
0 70 -236 3 c-209 2 -237 1 -243 -14z"></path>
<path d="M5832 4048 l3 -73 224 -3 c160 -2 227 1 238 9 10 9 13 30 11 73 l-3
61 -238 3 -238 2 3 -72z"></path>
<path d="M260 3666 l0 -106 81 0 c51 0 78 4 74 10 -3 6 -30 10 -60 10 l-54 0
-3 92 c-3 79 -6 93 -20 96 -16 3 -18 -7 -18 -102z"></path>
<path d="M3190 3760 c-11 -7 -6 -10 21 -10 36 0 69 -24 69 -48 0 -7 -30 -41
-67 -77 l-68 -65 88 0 c58 0 86 4 82 10 -4 6 -22 9 -40 8 -19 -1 -37 1 -41 5
-4 3 14 29 40 58 25 28 46 55 46 61 0 46 -88 85 -130 58z"></path>
<path d="M624 3727 c-52 -45 -22 -126 47 -127 69 0 98 81 45 127 -34 29 -58
29 -92 0z"></path>
<path d="M927 3744 c-4 -4 -7 -38 -7 -76 l0 -68 240 0 241 0 -3 73 -3 72 -231
3 c-127 1 -233 -1 -237 -4z"></path>
<path d="M1615 3734 c-16 -8 -33 -21 -37 -27 -25 -39 18 -107 67 -107 45 0 75
28 75 70 0 60 -52 92 -105 64z"></path>
<path d="M1945 3738 c-50 -27 -60 -80 -22 -116 43 -40 114 -19 132 38 8 27
-18 68 -51 80 -31 12 -34 12 -59 -2z"></path>
<path d="M3566 3718 c-9 -12 -16 -34 -16 -48 0 -45 26 -70 73 -70 58 1 80 20
80 70 0 50 -22 69 -80 70 -32 0 -45 -5 -57 -22z"></path>
<path d="M3900 3720 c-45 -45 -10 -120 56 -120 64 0 96 88 46 126 -26 20 -79
17 -102 -6z"></path>
<path d="M4200 3670 l0 -70 240 0 240 0 0 70 0 70 -240 0 -240 0 0 -70z"></path>
<path d="M4850 3670 l0 -70 240 0 240 0 0 70 0 70 -240 0 -240 0 0 -70z"></path>
<path d="M5502 3673 l3 -68 238 -3 237 -2 0 70 0 70 -240 0 -241 0 3 -67z"></path>
<path d="M190 3302 c0 -76 3 -101 14 -105 22 -9 26 2 26 79 0 40 4 75 9 79 5
3 22 -22 37 -55 35 -79 52 -79 88 2 33 74 46 65 46 -34 0 -63 11 -91 25 -68 4
6 7 52 7 103 l0 92 -33 0 c-28 0 -37 -6 -56 -40 -12 -22 -27 -40 -33 -40 -6 0
-21 18 -33 40 -19 34 -28 40 -60 43 l-37 3 0 -99z"></path>
<path d="M3215 3393 c57 -7 73 -13 79 -29 10 -26 -13 -44 -55 -44 -22 0 -39
-4 -39 -10 0 -5 15 -10 33 -10 98 -1 81 -88 -18 -91 -38 -1 -38 -2 -10 -8 57
-13 135 19 135 56 0 7 -9 22 -20 33 l-21 21 22 18 c45 36 -2 72 -89 70 -31 -1
-37 -3 -17 -6z"></path>
<path d="M596 3354 c-10 -27 -7 -99 7 -117 11 -16 34 -17 237 -15 l225 3 0 70
0 70 -231 3 c-205 2 -232 1 -238 -14z"></path>
<path d="M1247 3363 c-4 -3 -7 -35 -7 -69 0 -58 2 -64 23 -69 12 -3 119 -4
237 -3 l215 3 3 73 3 72 -234 0 c-128 0 -237 -3 -240 -7z"></path>
<path d="M3600 3363 c-53 -21 -68 -86 -28 -123 29 -27 89 -27 113 0 23 25 25
84 4 105 -16 17 -67 27 -89 18z"></path>
<path d="M4537 3364 c-4 -4 -7 -38 -7 -76 l0 -68 235 0 236 0 -3 73 -3 72
-226 3 c-124 1 -228 -1 -232 -4z"></path>
<path d="M5180 3355 c-6 -7 -10 -39 -8 -72 l3 -58 243 -3 242 -2 0 69 c0 55
-3 70 -17 75 -9 4 -114 6 -234 6 -170 -1 -220 -4 -229 -15z"></path>
<path d="M3897 3342 c-26 -29 -22 -77 9 -101 36 -28 70 -26 101 5 20 20 24 31
19 56 -3 17 -11 37 -17 45 -17 20 -93 17 -112 -5z"></path>
<path d="M4221 3333 c-53 -67 44 -152 106 -93 53 49 29 113 -44 118 -34 3 -44
-1 -62 -25z"></path>
<path d="M215 3008 c-3 -7 -4 -53 -2 -103 2 -76 5 -90 20 -93 15 -3 17 5 17
67 0 38 4 72 9 75 5 3 34 -28 66 -69 35 -47 64 -75 76 -75 17 0 19 9 19 106 0
93 -2 105 -17 102 -13 -2 -16 -16 -17 -65 -1 -65 -11 -89 -27 -61 -5 9 -29 41
-54 72 -45 54 -80 71 -90 44z"></path>
<path d="M3210 2958 c-30 -33 -56 -64 -58 -69 -2 -4 25 -9 60 -11 l63 -3 3
-33 c4 -42 34 -41 42 2 3 17 13 32 24 36 19 6 19 7 -2 12 -20 6 -22 13 -22 67
0 60 0 61 -27 60 -21 0 -42 -16 -83 -61z m68 -24 c-3 -36 -5 -39 -37 -42 -55
-6 -60 13 -16 58 44 45 58 41 53 -16z"></path>
<path d="M597 2993 c-10 -9 -8 -115 1 -131 7 -9 61 -12 238 -10 l229 3 3 73 3
72 -234 0 c-128 0 -237 -3 -240 -7z"></path>
<path d="M1284 2988 c-52 -25 -51 -103 2 -127 39 -17 63 -13 89 15 32 35 32
65 -1 98 -28 27 -55 32 -90 14z"></path>
<path d="M3583 2974 c-41 -32 -44 -74 -8 -109 59 -60 155 1 125 79 -8 22 -55
56 -77 56 -4 0 -23 -12 -40 -26z"></path>
<path d="M3906 2969 c-51 -40 -25 -119 41 -121 42 -1 70 18 78 51 8 37 -8 69
-41 81 -36 14 -48 13 -78 -11z"></path>
<path d="M4242 2980 c-31 -13 -46 -56 -31 -92 20 -48 98 -52 132 -6 18 24 19
30 7 58 -18 44 -60 59 -108 40z"></path>
<path d="M4580 2983 c-32 -12 -50 -37 -50 -68 0 -41 27 -65 73 -65 92 0 107
115 17 134 -14 2 -32 2 -40 -1z"></path>
<path d="M4854 2977 c-3 -8 -4 -41 -2 -73 l3 -59 215 -3 c118 -1 225 0 238 3
21 5 23 10 20 73 l-3 67 -233 3 c-190 2 -233 0 -238 -11z"></path>
<path d="M249 2617 c-50 -33 -65 -69 -47 -115 16 -44 59 -70 114 -71 74 -2
123 38 124 99 0 91 -111 141 -191 87z m135 -28 c30 -35 32 -58 11 -98 -17 -33
-33 -41 -85 -41 -73 0 -104 80 -54 139 20 25 34 31 64 31 30 0 44 -6 64 -31z"></path>
<path d="M3177 2633 c-4 -3 -7 -24 -7 -45 0 -39 1 -39 30 -33 62 14 106 -49
62 -88 -10 -10 -30 -17 -45 -17 -14 0 -29 -4 -32 -10 -9 -14 61 -13 88 2 28
14 46 38 47 59 0 30 -39 68 -73 71 -24 2 -33 8 -35 26 -3 20 1 22 37 22 23 0
41 5 41 10 0 11 -103 14 -113 3z"></path>
<path d="M597 2613 c-10 -9 -8 -115 1 -131 7 -9 61 -12 238 -10 l229 3 3 73 3
72 -234 0 c-128 0 -237 -3 -240 -7z"></path>
<path d="M1247 2613 c-4 -3 -7 -35 -7 -69 0 -58 2 -64 23 -69 12 -3 119 -4
237 -3 l215 3 3 73 3 72 -234 0 c-128 0 -237 -3 -240 -7z"></path>
<path d="M1902 2548 l3 -73 235 0 235 0 3 73 3 72 -241 0 -241 0 3 -72z"></path>
<path d="M3595 2608 c-46 -25 -59 -74 -29 -116 12 -17 25 -22 57 -22 23 0 49
6 58 13 38 30 33 95 -11 120 -33 20 -47 21 -75 5z"></path>
<path d="M3900 2590 c-45 -45 -11 -120 54 -120 66 0 99 87 48 126 -26 20 -79
17 -102 -6z"></path>
<path d="M4225 2585 c-30 -30 -31 -54 -4 -89 28 -36 81 -36 114 0 14 15 25 35
25 44 0 9 -11 29 -25 44 -32 34 -77 35 -110 1z"></path>
<path d="M4550 2590 c-45 -45 -11 -120 53 -120 40 0 77 34 77 71 0 58 -88 91
-130 49z"></path>
<path d="M4875 2585 c-30 -30 -31 -54 -4 -89 16 -20 29 -26 58 -26 47 0 71 24
71 73 0 65 -77 91 -125 42z"></path>
<path d="M265 2252 c-3 -3 -5 -50 -5 -104 0 -91 1 -98 20 -98 17 0 20 7 20 40
0 39 1 40 35 40 74 0 112 62 65 105 -19 17 -121 30 -135 17z m104 -26 c7 -8
11 -27 9 -43 -3 -24 -8 -28 -40 -31 l-38 -3 0 45 c0 44 1 46 29 46 16 0 34 -6
40 -14z"></path>
<path d="M632 2238 c-37 -18 -46 -85 -15 -116 19 -20 90 -19 111 1 25 26 21
85 -8 108 -28 21 -54 23 -88 7z"></path>
<path d="M922 2178 l3 -73 235 0 235 0 3 73 3 72 -241 0 -241 0 3 -72z"></path>
<path d="M1574 2237 c-3 -8 -4 -41 -2 -73 l3 -59 215 -3 c118 -1 225 0 238 3
21 5 23 10 20 73 l-3 67 -233 3 c-190 2 -233 0 -238 -11z"></path>
<path d="M2256 2229 c-32 -25 -36 -77 -7 -103 26 -23 86 -23 112 0 29 26 25
78 -7 103 -15 12 -37 21 -49 21 -12 0 -34 -9 -49 -21z"></path>
<path d="M3197 2239 c-60 -35 -61 -151 0 -178 57 -26 143 3 143 49 0 27 -47
60 -86 60 -19 0 -34 -4 -34 -10 0 -5 13 -10 28 -10 50 0 69 -42 34 -73 -48
-43 -92 -7 -88 71 3 60 18 80 67 92 l34 8 -40 1 c-22 0 -48 -4 -58 -10z"></path>
<path d="M3560 2232 c-6 -2 -10 -35 -10 -73 l0 -69 240 0 240 0 0 70 0 69
-230 3 c-127 2 -235 2 -240 0z"></path>
<path d="M4221 2204 c-28 -36 -27 -60 5 -89 32 -30 73 -32 101 -5 53 49 29
113 -44 118 -34 3 -44 -1 -62 -24z"></path>
<path d="M4547 2212 c-24 -27 -21 -74 6 -100 67 -63 172 33 107 98 -26 26 -90
27 -113 2z"></path>
<path d="M4872 2207 c-29 -31 -28 -63 4 -92 31 -29 64 -32 99 -9 31 20 35 82
7 107 -28 25 -84 22 -110 -6z"></path>
<path d="M5196 2208 c-35 -50 0 -118 61 -118 31 0 73 42 73 75 0 60 -100 92
-134 43z"></path>
<path d="M244 1871 c-42 -26 -60 -71 -44 -111 16 -39 53 -68 95 -76 19 -3 41
-15 51 -25 9 -10 25 -19 36 -19 21 0 22 4 7 28 -9 15 -6 24 20 49 33 33 42 84
21 124 -26 48 -129 65 -186 30z m147 -33 c58 -94 -64 -191 -135 -107 -31 37
-33 77 -5 113 17 22 28 26 70 26 45 0 51 -3 70 -32z"></path>
<path d="M3155 1880 c4 -6 29 -10 56 -9 27 1 51 0 54 -3 3 -2 -11 -42 -30 -87
-35 -83 -37 -109 -8 -93 14 8 83 169 83 193 0 5 -36 9 -81 9 -52 0 -78 -4 -74
-10z"></path>
<path d="M594 1856 c-3 -7 -4 -38 -2 -67 l3 -54 238 -3 237 -2 0 70 0 70 -235
0 c-190 0 -237 -3 -241 -14z"></path>
<path d="M1240 1800 l0 -70 240 0 240 0 0 70 0 70 -240 0 -240 0 0 -70z"></path>
<path d="M1922 1847 c-56 -59 12 -142 93 -111 8 4 23 20 31 36 14 27 14 32 -3
61 -16 26 -26 33 -59 35 -31 2 -44 -2 -62 -21z"></path>
<path d="M2230 1800 l0 -70 238 2 237 3 0 65 0 65 -237 3 -238 2 0 -70z"></path>
<path d="M3554 1847 c-3 -8 -4 -41 -2 -73 l3 -59 235 0 235 0 0 70 0 70 -233
3 c-190 2 -233 0 -238 -11z"></path>
<path d="M4204 1847 c-3 -8 -4 -41 -2 -73 l3 -59 235 0 235 0 0 70 0 70 -233
3 c-190 2 -233 0 -238 -11z"></path>
<path d="M4890 1847 c-55 -28 -48 -105 12 -126 50 -18 98 13 98 64 0 54 -60
88 -110 62z"></path>
<path d="M5230 1853 c-64 -24 -69 -98 -8 -129 70 -36 140 45 91 104 -19 23
-59 34 -83 25z"></path>
<path d="M5542 1850 c-28 -12 -44 -52 -33 -83 22 -57 88 -69 128 -23 12 15 23
35 23 44 -1 46 -69 82 -118 62z"></path>
<path d="M240 1405 c0 -87 3 -105 15 -105 10 0 15 10 15 33 0 18 5 38 11 44
19 19 60 1 86 -38 15 -22 34 -39 44 -39 27 0 24 14 -11 53 -34 39 -37 52 -15
61 9 3 15 18 15 35 0 40 -35 61 -105 61 l-55 0 0 -105z m118 50 c4 -33 -18
-55 -54 -55 -23 0 -34 17 -34 54 0 31 9 37 50 34 31 -3 35 -7 38 -33z"></path>
<path d="M3178 1494 c-33 -17 -35 -34 -8 -59 l20 -18 -20 -22 c-27 -29 -25
-49 6 -74 35 -28 97 -28 135 0 34 24 37 49 9 74 l-20 18 20 22 c11 12 18 29
15 37 -14 37 -107 50 -157 22z m111 -18 c22 -26 2 -46 -45 -46 -48 0 -66 18
-44 45 16 19 74 20 89 1z m-7 -83 c36 -32 16 -73 -37 -73 -52 0 -71 36 -38 72
20 22 51 23 75 1z"></path>
<path d="M632 1490 c-42 -18 -49 -72 -14 -112 21 -25 84 -24 107 2 22 24 24
75 4 95 -19 19 -68 27 -97 15z"></path>
<path d="M920 1425 l0 -75 238 2 237 3 0 70 0 70 -237 3 -238 2 0 -75z"></path>
<path d="M1596 1477 c-51 -51 -21 -117 52 -117 48 0 72 24 72 72 0 42 -15 57
-63 65 -29 4 -40 1 -61 -20z"></path>
<path d="M3554 1466 c-3 -7 -4 -38 -2 -67 l3 -54 238 -3 237 -2 0 70 0 70
-235 0 c-190 0 -237 -3 -241 -14z"></path>
<path d="M4202 1413 l3 -68 238 -3 237 -2 0 70 0 70 -240 0 -241 0 3 -67z"></path>
<path d="M4854 1466 c-3 -7 -4 -38 -2 -67 l3 -54 238 -3 237 -2 0 70 0 70
-235 0 c-190 0 -237 -3 -241 -14z"></path>
<path d="M5529 1462 c-28 -23 -30 -73 -4 -102 28 -31 88 -27 114 6 27 35 26
55 -4 88 -29 31 -72 34 -106 8z"></path>
<path d="M5856 1459 c-53 -42 -21 -119 49 -119 70 0 102 77 49 119 -15 12 -37
21 -49 21 -12 0 -34 -9 -49 -21z"></path>
<path d="M290 1123 c-26 -10 -50 -35 -50 -53 0 -21 31 -50 53 -50 21 0 22 16
2 24 -18 7 -20 37 -3 54 7 7 28 12 48 12 26 0 31 3 20 10 -16 10 -46 12 -70 3z"></path>
<path d="M624 1107 c-53 -46 -23 -127 46 -127 70 0 99 81 46 127 -34 29 -58
29 -92 0z"></path>
<path d="M965 1119 c-50 -28 -60 -82 -22 -117 67 -63 168 27 110 96 -22 26
-62 35 -88 21z"></path>
<path d="M1277 1110 c-34 -27 -41 -53 -23 -88 25 -49 82 -57 121 -17 34 33 32
67 -6 99 -37 31 -58 33 -92 6z"></path>
<path d="M3193 1115 c-44 -19 -55 -61 -23 -87 29 -23 65 -32 87 -22 15 6 12 9
-12 12 -37 5 -55 19 -55 43 0 26 28 49 60 49 36 0 48 -21 46 -80 -2 -53 -23
-90 -51 -90 -11 0 -27 -5 -35 -10 -22 -14 42 -13 73 1 71 32 75 142 7 182 -34
20 -55 21 -97 2z"></path>
<path d="M3554 1096 c-3 -7 -4 -40 -2 -72 l3 -59 238 -3 237 -2 0 69 c0 54 -4
70 -16 75 -9 3 -114 6 -235 6 -176 0 -221 -3 -225 -14z"></path>
<path d="M4212 1102 c-9 -6 -12 -28 -10 -73 l3 -64 238 -3 238 -2 -3 72 -3 73
-225 2 c-124 2 -231 -1 -238 -5z"></path>
<path d="M4854 1096 c-3 -7 -4 -40 -2 -72 l3 -59 238 -3 237 -2 0 69 c0 54 -4
70 -16 75 -9 3 -114 6 -235 6 -176 0 -221 -3 -225 -14z"></path>
<path d="M5512 1102 c-9 -6 -12 -28 -10 -73 l3 -64 238 -3 238 -2 -3 72 -3 73
-225 2 c-124 2 -231 -1 -238 -5z"></path>
<path d="M6171 1074 c-27 -35 -26 -55 4 -88 45 -49 125 -22 127 42 1 45 -26
72 -73 72 -29 0 -42 -6 -58 -26z"></path>
<path d="M345 1010 c3 -5 13 -10 21 -10 11 0 14 -8 12 -27 -3 -25 -8 -29 -45
-34 -61 -8 -65 -19 -7 -19 79 0 124 50 77 86 -21 16 -67 19 -58 4z"></path>
<path d="M224 759 c-2 -4 17 -9 43 -11 l48 -3 5 -95 c4 -76 8 -95 20 -95 12 0
16 19 20 95 l5 95 50 6 c28 3 48 7 45 9 -13 6 -231 6 -236 -1z"></path>
<path d="M3189 747 c-24 -18 -39 -52 -39 -87 0 -63 34 -99 96 -100 67 0 104
50 90 125 -10 49 -41 75 -90 75 -23 0 -48 -6 -57 -13z m95 -22 c23 -35 21
-106 -4 -133 -26 -28 -44 -28 -70 0 -14 15 -20 35 -20 68 0 78 59 119 94 65z"></path>
<path d="M596 734 c-8 -20 -8 -82 0 -112 l6 -22 232 2 231 3 0 70 0 70 -231 3
c-205 2 -232 1 -238 -14z"></path>
<path d="M3554 717 c-3 -8 -4 -41 -2 -73 l3 -59 235 0 235 0 0 70 0 70 -233 3
c-190 2 -233 0 -238 -11z"></path>
<path d="M4212 722 c-9 -6 -12 -28 -10 -73 l3 -64 235 0 235 0 0 70 0 70 -225
2 c-124 2 -231 -1 -238 -5z"></path>
<path d="M4854 717 c-3 -8 -4 -41 -2 -73 l3 -59 235 0 235 0 0 70 0 70 -233 3
c-190 2 -233 0 -238 -11z"></path>
<path d="M5512 722 c-9 -6 -12 -28 -10 -73 l3 -64 235 0 235 0 0 70 0 70 -225
2 c-124 2 -231 -1 -238 -5z"></path>
<path d="M6154 717 c-3 -8 -4 -41 -2 -73 l3 -59 238 -3 238 -2 -3 72 -3 73
-233 3 c-190 2 -233 0 -238 -11z"></path>
<path d="M217 373 c-11 -10 -8 -107 4 -142 19 -55 97 -78 158 -46 37 18 41 31
41 122 0 62 -3 74 -16 71 -12 -2 -16 -20 -19 -81 -2 -43 -9 -84 -15 -92 -7 -9
-29 -15 -51 -15 -54 0 -69 25 -69 117 0 54 -3 73 -13 73 -8 0 -17 -3 -20 -7z"></path>
<path d="M626 359 c-20 -16 -26 -29 -26 -59 0 -46 20 -65 71 -65 43 0 64 17
74 57 6 22 1 33 -23 58 -36 35 -60 38 -96 9z"></path>
<path d="M946 355 c-35 -32 -35 -76 0 -104 35 -28 69 -26 99 4 32 31 32 69 0
100 -31 32 -65 32 -99 0z"></path>
<path d="M1244 366 c-3 -7 -4 -40 -2 -72 l3 -59 238 -3 237 -2 0 75 0 75 -235
0 c-190 0 -237 -3 -241 -14z"></path>
</g>
</svg>